/* XPM */
static char *d4c7c82f7dfe43cccedbc8166296a93c54nY4WZWKyUaV2uQ[] = {
/* columns rows colors chars-per-pixel */
"110 110 5 1 ",
"  c None",
". c #191814",
"X c #B0983A",
"o c #A29669",
"O c #F0D053",
/* pixels */
"                                   XXXXXXXXXXXXXXXXXXXXXXXXXXXXXXXXXXXXXXXX                                   ",
"                                   XXXXXXXXXXXXXXXXXXXXXXXXXXXXXXXXXXXXXXXX                                   ",
"                                   XXXXXXXXXXXXXXXXXXXXXXXXXXXXXXXXXXXXXXXX                                   ",
"                                   XXXXXXXXXXXXXXXXXXXXXXXXXXXXXXXXXXXXXXXX                                   ",
"                                   XXXXXXXXXXXXXXXXXXXXXXXXXXXXXXXXXXXXXXXX                                   ",
"                         XXXXXXXXXXOOOOOOOOOOOOOOOOOOOOOOOOOOOOOOOOOOOOOOOOXXXXXXXXXX                         ",
"                         XXXXXXXXXXOOOOOOOOOOOOOOOOOOOOOOOOOOOOOOOOOOOOOOOOXXXXXXXXXX                         ",
"                         XXXXXXXXXXOOOOOOOOOOOOOOOOOOOOOOOOOOOOOOOOOOOOOOOOXXXXXXXXXX                         ",
"                         XXXXXXXXXXOOOOOOOOOOOOOOOOOOOOOOOOOOOOOOOOOOOOOOOOXXXXXXXXXX                         ",
"                         XXXXXXXXXXOOOOOOOOOOOOOOOOOOOOOOOOOOOOOOOOOOOOOOOOXXXXXXXXXX                         ",
"                    XXXXXOOOOOOOOOOOOOOOOOOOOOOOOOOOOOOOOOOOOOOOOOOOOOOOOOOOOOOOOOOOOXXXXX                    ",
"                    XXXXXOOOOOOOOOOOOOOOOOOOOOOOOOOOOOOOOOOOOOOOOOOOOOOOOOOOOOOOOOOOOXXXXX                    ",
"                    XXXXXOOOOOOOOOOOOOOOOOOOOOOOOOOOOOOOOOOOOOOOOOOOOOOOOOOOOOOOOOOOOXXXXX                    ",
"                    XXXXXOOOOOOOOOOOOOOOOOOOOOOOOOOOOOOOOOOOOOOOOOOOOOOOOOOOOOOOOOOOOXXXXX                    ",
"                    XXXXXOOOOOOOOOOOOOOOOOOOOOOOOOOOOOOOOOOOOOOOOOOOOOOOOOOOOOOOOOOOOXXXXX                    ",
"               XXXXXOOOOOOOOOOOOOOOOOOOOOOOOOOOOOOOOOOOOOOOOOOOOOOOOOOOOOOOOOOOOOOOOOOOOOOXXXXX               ",
"               XXXXXOOOOOOOOOOOOOOOOOOOOOOOOOOOOOOOOOOOOOOOOOOOOOOOOOOOOOOOOOOOOOOOOOOOOOOXXXXX               ",
"               XXXXXOOOOOOOOOOOOOOOOOOOOOOOOOOOOOOOOOOOOOOOOOOOOOOOOOOOOOOOOOOOOOOOOOOOOOOXXXXX               ",
"               XXXXXOOOOOOOOOOOOOOOOOOOOOOOOOOOOOOOOOOOOOOOOOOOOOOOOOOOOOOOOOOOOOOOOOOOOOOXXXXX               ",
"               XXXXXOOOOOOOOOOOOOOOOOOOOOOOOOOOOOOOOOOOOOOOOOOOOOOOOOOOOOOOOOOOOOOOOOOOOOOXXXXX               ",
"          XXXXXOOOOOOOOOOOOOOOOOOOOOOOOOOOOOOOOOOOOOOOOOOOOOOOOOOOOOOOOOOOOOOOOOOOOOOOOOOOOOOOOXXXXX          ",
"          XXXXXOOOOOOOOOOOOOOOOOOOOOOOOOOOOOOOOOOOOOOOOOOOOOOOOOOOOOOOOOOOOOOOOOOOOOOOOOOOOOOOOXXXXX          ",
"          XXXXXOOOOOOOOOOOOOOOOOOOOOOOOOOOOOOOOOOOOOOOOOOOOOOOOOOOOOOOOOOOOOOOOOOOOOOOOOOOOOOOOXXXXX          ",
"          XXXXXOOOOOOOOOOOOOOOOOOOOOOOOOOOOOOOOOOOOOOOOOOOOOOOOOOOOOOOOOOOOOOOOOOOOOOOOOOOOOOOOXXXXX          ",
"          XXXXXOOOOOOOOOOOOOOOOOOOOOOOOOOOOOOOOOOOOOOOOOOOOOOOOOOOOOOOOOOOOOOOOOOOOOOOOOOOOOOOOXXXXX          ",
"     XXXXXOOOOOOOOOOOOOOOOOOOOOOOOOOOOOOOOOOOOOOOOOOOOOOOOOOOOOOOOOOOOOOOOOOOOOOOOOOOOOOOOOOOOOOOOOOXXXXX     ",
"     XXXXXOOOOOOOOOOOOOOOOOOOOOOOOOOOOOOOOOOOOOOOOOOOOOOOOOOOOOOOOOOOOOOOOOOOOOOOOOOOOOOOOOOOOOOOOOOXXXXX     ",
"     XXXXXOOOOOOOOOOOOOOOOOOOOOOOOOOOOOOOOOOOOOOOOOOOOOOOOOOOOOOOOOOOOOOOOOOOOOOOOOOOOOOOOOOOOOOOOOOXXXXX     ",
"     XXXXXOOOOOOOOOOOOOOOOOOOOOOOOOOOOOOOOOOOOOOOOOOOOOOOOOOOOOOOOOOOOOOOOOOOOOOOOOOOOOOOOOOOOOOOOOOXXXXX     ",
"     XXXXXOOOOOOOOOOOOOOOOOOOOOOOOOOOOOOOOOOOOOOOOOOOOOOOOOOOOOOOOOOOOOOOOOOOOOOOOOOOOOOOOOOOOOOOOOOXXXXX     ",
"     XXXXXOOOOOOOOOOOOOOOOOOOOOOOOOOOOOOOOOOOOOOOOOOOOOOOOOOOOOOOOOOOOOOOOOOOOOOOOOOOOOOOOOOOOOOOOOOXXXXX     ",
"     XXXXXOOOOOOOOOOOOOOOOOOOOOOOOOOOOOOOOOOOOOOOOOOOOOOOOOOOOOOOOOOOOOOOOOOOOOOOOOOOOOOOOOOOOOOOOOOXXXXX     ",
"     XXXXXOOOOOOOOOOOOOOOOOOOOOOOOOOOOOOOOOOOOOOOOOOOOOOOOOOOOOOOOOOOOOOOOOOOOOOOOOOOOOOOOOOOOOOOOOOXXXXX     ",
"     XXXXXOOOOOOOOOOOOOOOOOOOOOOOOOOOOOOOOOOOOOOOOOOOOOOOOOOOOOOOOOOOOOOOOOOOOOOOOOOOOOOOOOOOOOOOOOOXXXXX     ",
"     XXXXXOOOOOOOOOOOOOOOOOOOOOOOOOOOOOOOOOOOOOOOOOOOOOOOOOOOOOOOOOOOOOOOOOOOOOOOOOOOOOOOOOOOOOOOOOOXXXXX     ",
"XXXXXOOOOOOOOOOOOOOOOOOOOOOOOOOOOOO.....oooooOOOOOOOOOOOOOOOOOOOO..........oooooOOOOOOOOOOOOOOOOOOOOOOOOOXXXXX",
"XXXXXOOOOOOOOOOOOOOOOOOOOOOOOOOOOOO.....oooooOOOOOOOOOOOOOOOOOOOO..........oooooOOOOOOOOOOOOOOOOOOOOOOOOOXXXXX",
"XXXXXOOOOOOOOOOOOOOOOOOOOOOOOOOOOOO.....oooooOOOOOOOOOOOOOOOOOOOO..........oooooOOOOOOOOOOOOOOOOOOOOOOOOOXXXXX",
"XXXXXOOOOOOOOOOOOOOOOOOOOOOOOOOOOOO.....oooooOOOOOOOOOOOOOOOOOOOO..........oooooOOOOOOOOOOOOOOOOOOOOOOOOOXXXXX",
"XXXXXOOOOOOOOOOOOOOOOOOOOOOOOOOOOOO.....oooooOOOOOOOOOOOOOOOOOOOO..........oooooOOOOOOOOOOOOOOOOOOOOOOOOOXXXXX",
"XXXXXOOOOOOOOOOOOOOOOOOOOOOOOOOOOOO.....oooooOOOOOOOOOOOOOOO.....ooooooooooOOOOOOOOOOOOOOOOOOOOOOOOOOOOOOXXXXX",
"XXXXXOOOOOOOOOOOOOOOOOOOOOOOOOOOOOO.....oooooOOOOOOOOOOOOOOO.....ooooooooooOOOOOOOOOOOOOOOOOOOOOOOOOOOOOOXXXXX",
"XXXXXOOOOOOOOOOOOOOOOOOOOOOOOOOOOOO.....oooooOOOOOOOOOOOOOOO.....ooooooooooOOOOOOOOOOOOOOOOOOOOOOOOOOOOOOXXXXX",
"XXXXXOOOOOOOOOOOOOOOOOOOOOOOOOOOOOO.....oooooOOOOOOOOOOOOOOO.....ooooooooooOOOOOOOOOOOOOOOOOOOOOOOOOOOOOOXXXXX",
"XXXXXOOOOOOOOOOOOOOOOOOOOOOOOOOOOOO.....oooooOOOOOOOOOOOOOOO.....ooooooooooOOOOOOOOOOOOOOOOOOOOOOOOOOOOOOXXXXX",
"XXXXXOOOOOOOOOOOOOOOOOOOOOOOOOOOOOO...............ooooo.....oooooOOOOOOOOOOOOOOOOOOOOOOOOOOOOOOOOOOOOOOOOXXXXX",
"XXXXXOOOOOOOOOOOOOOOOOOOOOOOOOOOOOO...............ooooo.....oooooOOOOOOOOOOOOOOOOOOOOOOOOOOOOOOOOOOOOOOOOXXXXX",
"XXXXXOOOOOOOOOOOOOOOOOOOOOOOOOOOOOO...............ooooo.....oooooOOOOOOOOOOOOOOOOOOOOOOOOOOOOOOOOOOOOOOOOXXXXX",
"XXXXXOOOOOOOOOOOOOOOOOOOOOOOOOOOOOO...............ooooo.....oooooOOOOOOOOOOOOOOOOOOOOOOOOOOOOOOOOOOOOOOOOXXXXX",
"XXXXXOOOOOOOOOOOOOOOOOOOOOOOOOOOOOO...............ooooo.....oooooOOOOOOOOOOOOOOOOOOOOOOOOOOOOOOOOOOOOOOOOXXXXX",
"XXXXXOOOOOOOOOOOOOOOOOOOOOOOOOOOOOO.....oooooooooo.....oooooOOOOOOOOOOOOOOOOOOOOOOOOOOOOOOOOOOOOOOOOOOOOOXXXXX",
"XXXXXOOOOOOOOOOOOOOOOOOOOOOOOOOOOOO.....oooooooooo.....oooooOOOOOOOOOOOOOOOOOOOOOOOOOOOOOOOOOOOOOOOOOOOOOXXXXX",
"XXXXXOOOOOOOOOOOOOOOOOOOOOOOOOOOOOO.....oooooooooo.....oooooOOOOOOOOOOOOOOOOOOOOOOOOOOOOOOOOOOOOOOOOOOOOOXXXXX",
"XXXXXOOOOOOOOOOOOOOOOOOOOOOOOOOOOOO.....oooooooooo.....oooooOOOOOOOOOOOOOOOOOOOOOOOOOOOOOOOOOOOOOOOOOOOOOXXXXX",
"XXXXXOOOOOOOOOOOOOOOOOOOOOOOOOOOOOO.....oooooooooo.....oooooOOOOOOOOOOOOOOOOOOOOOOOOOOOOOOOOOOOOOOOOOOOOOXXXXX",
"XXXXXOOOOOOOOOOOOOOOOOOOOOOOOOOOOOO.....oooooOOOOO.....oooooOOOOOOOOOOOOOOOOOOOOOOOOOOOOOOOOOOOOOOOOOOOOOXXXXX",
"XXXXXOOOOOOOOOOOOOOOOOOOOOOOOOOOOOO.....oooooOOOOO.....oooooOOOOOOOOOOOOOOOOOOOOOOOOOOOOOOOOOOOOOOOOOOOOOXXXXX",
"XXXXXOOOOOOOOOOOOOOOOOOOOOOOOOOOOOO.....oooooOOOOO.....oooooOOOOOOOOOOOOOOOOOOOOOOOOOOOOOOOOOOOOOOOOOOOOOXXXXX",
"XXXXXOOOOOOOOOOOOOOOOOOOOOOOOOOOOOO.....oooooOOOOO.....oooooOOOOOOOOOOOOOOOOOOOOOOOOOOOOOOOOOOOOOOOOOOOOOXXXXX",
"XXXXXOOOOOOOOOOOOOOOOOOOOOOOOOOOOOO.....oooooOOOOO.....oooooOOOOOOOOOOOOOOOOOOOOOOOOOOOOOOOOOOOOOOOOOOOOOXXXXX",
"XXXXXOOOOOOOOOOOOOOOOOOOOOOOOOOOOOO...............ooooo.....OOOOOOOOOOOOOOOOOOOOOOOOOOOOOOOOOOOOOOOOOOOOOXXXXX",
"XXXXXOOOOOOOOOOOOOOOOOOOOOOOOOOOOOO...............ooooo.....OOOOOOOOOOOOOOOOOOOOOOOOOOOOOOOOOOOOOOOOOOOOOXXXXX",
"XXXXXOOOOOOOOOOOOOOOOOOOOOOOOOOOOOO...............ooooo.....OOOOOOOOOOOOOOOOOOOOOOOOOOOOOOOOOOOOOOOOOOOOOXXXXX",
"XXXXXOOOOOOOOOOOOOOOOOOOOOOOOOOOOOO...............ooooo.....OOOOOOOOOOOOOOOOOOOOOOOOOOOOOOOOOOOOOOOOOOOOOXXXXX",
"XXXXXOOOOOOOOOOOOOOOOOOOOOOOOOOOOOO...............ooooo.....OOOOOOOOOOOOOOOOOOOOOOOOOOOOOOOOOOOOOOOOOOOOOXXXXX",
"XXXXXOOOOOOOOOOOOOOOOOOOOOOOOOOOOOO.....ooooooooooOOOOOooooo.....OOOOOOOOOOOOOOOOOOOOOOOOOOOOOOOOOOOOOOOOXXXXX",
"XXXXXOOOOOOOOOOOOOOOOOOOOOOOOOOOOOO.....ooooooooooOOOOOooooo.....OOOOOOOOOOOOOOOOOOOOOOOOOOOOOOOOOOOOOOOOXXXXX",
"XXXXXOOOOOOOOOOOOOOOOOOOOOOOOOOOOOO.....ooooooooooOOOOOooooo.....OOOOOOOOOOOOOOOOOOOOOOOOOOOOOOOOOOOOOOOOXXXXX",
"XXXXXOOOOOOOOOOOOOOOOOOOOOOOOOOOOOO.....ooooooooooOOOOOooooo.....OOOOOOOOOOOOOOOOOOOOOOOOOOOOOOOOOOOOOOOOXXXXX",
"XXXXXOOOOOOOOOOOOOOOOOOOOOOOOOOOOOO.....ooooooooooOOOOOooooo.....OOOOOOOOOOOOOOOOOOOOOOOOOOOOOOOOOOOOOOOOXXXXX",
"XXXXXOOOOOOOOOOOOOOOOOOOOOOOOOOOOOO.....oooooOOOOOOOOOOOOOOOooooo..........oooooOOOOOOOOOOOOOOOOOOOOOOOOOXXXXX",
"XXXXXOOOOOOOOOOOOOOOOOOOOOOOOOOOOOO.....oooooOOOOOOOOOOOOOOOooooo..........oooooOOOOOOOOOOOOOOOOOOOOOOOOOXXXXX",
"XXXXXOOOOOOOOOOOOOOOOOOOOOOOOOOOOOO.....oooooOOOOOOOOOOOOOOOooooo..........oooooOOOOOOOOOOOOOOOOOOOOOOOOOXXXXX",
"XXXXXOOOOOOOOOOOOOOOOOOOOOOOOOOOOOO.....oooooOOOOOOOOOOOOOOOooooo..........oooooOOOOOOOOOOOOOOOOOOOOOOOOOXXXXX",
"XXXXXOOOOOOOOOOOOOOOOOOOOOOOOOOOOOO.....oooooOOOOOOOOOOOOOOOooooo..........oooooOOOOOOOOOOOOOOOOOOOOOOOOOXXXXX",
"     XXXXXOOOOOOOOOOOOOOOOOOOOOOOOOoooooOOOOOOOOOOOOOOOOOOOOOOOOOooooooooooOOOOOOOOOOOOOOOOOOOOOOOOOXXXXX     ",
"     XXXXXOOOOOOOOOOOOOOOOOOOOOOOOOoooooOOOOOOOOOOOOOOOOOOOOOOOOOooooooooooOOOOOOOOOOOOOOOOOOOOOOOOOXXXXX     ",
"     XXXXXOOOOOOOOOOOOOOOOOOOOOOOOOoooooOOOOOOOOOOOOOOOOOOOOOOOOOooooooooooOOOOOOOOOOOOOOOOOOOOOOOOOXXXXX     ",
"     XXXXXOOOOOOOOOOOOOOOOOOOOOOOOOoooooOOOOOOOOOOOOOOOOOOOOOOOOOooooooooooOOOOOOOOOOOOOOOOOOOOOOOOOXXXXX     ",
"     XXXXXOOOOOOOOOOOOOOOOOOOOOOOOOoooooOOOOOOOOOOOOOOOOOOOOOOOOOooooooooooOOOOOOOOOOOOOOOOOOOOOOOOOXXXXX     ",
"     XXXXXOOOOOOOOOOOOOOOOOOOOOOOOOOOOOOOOOOOOOOOOOOOOOOOOOOOOOOOOOOOOOOOOOOOOOOOOOOOOOOOOOOOOOOOOOOXXXXX     ",
"     XXXXXOOOOOOOOOOOOOOOOOOOOOOOOOOOOOOOOOOOOOOOOOOOOOOOOOOOOOOOOOOOOOOOOOOOOOOOOOOOOOOOOOOOOOOOOOOXXXXX     ",
"     XXXXXOOOOOOOOOOOOOOOOOOOOOOOOOOOOOOOOOOOOOOOOOOOOOOOOOOOOOOOOOOOOOOOOOOOOOOOOOOOOOOOOOOOOOOOOOOXXXXX     ",
"     XXXXXOOOOOOOOOOOOOOOOOOOOOOOOOOOOOOOOOOOOOOOOOOOOOOOOOOOOOOOOOOOOOOOOOOOOOOOOOOOOOOOOOOOOOOOOOOXXXXX     ",
"     XXXXXOOOOOOOOOOOOOOOOOOOOOOOOOOOOOOOOOOOOOOOOOOOOOOOOOOOOOOOOOOOOOOOOOOOOOOOOOOOOOOOOOOOOOOOOOOXXXXX     ",
"          XXXXXOOOOOOOOOOOOOOOOOOOOOOOOOOOOOOOOOOOOOOOOOOOOOOOOOOOOOOOOOOOOOOOOOOOOOOOOOOOOOOOOXXXXX          ",
"          XXXXXOOOOOOOOOOOOOOOOOOOOOOOOOOOOOOOOOOOOOOOOOOOOOOOOOOOOOOOOOOOOOOOOOOOOOOOOOOOOOOOOXXXXX          ",
"          XXXXXOOOOOOOOOOOOOOOOOOOOOOOOOOOOOOOOOOOOOOOOOOOOOOOOOOOOOOOOOOOOOOOOOOOOOOOOOOOOOOOOXXXXX          ",
"          XXXXXOOOOOOOOOOOOOOOOOOOOOOOOOOOOOOOOOOOOOOOOOOOOOOOOOOOOOOOOOOOOOOOOOOOOOOOOOOOOOOOOXXXXX          ",
"          XXXXXOOOOOOOOOOOOOOOOOOOOOOOOOOOOOOOOOOOOOOOOOOOOOOOOOOOOOOOOOOOOOOOOOOOOOOOOOOOOOOOOXXXXX          ",
"               XXXXXOOOOOOOOOOOOOOOOOOOOOOOOOOOOOOOOOOOOOOOOOOOOOOOOOOOOOOOOOOOOOOOOOOOOOOXXXXX               ",
"               XXXXXOOOOOOOOOOOOOOOOOOOOOOOOOOOOOOOOOOOOOOOOOOOOOOOOOOOOOOOOOOOOOOOOOOOOOOXXXXX               ",
"               XXXXXOOOOOOOOOOOOOOOOOOOOOOOOOOOOOOOOOOOOOOOOOOOOOOOOOOOOOOOOOOOOOOOOOOOOOOXXXXX               ",
"               XXXXXOOOOOOOOOOOOOOOOOOOOOOOOOOOOOOOOOOOOOOOOOOOOOOOOOOOOOOOOOOOOOOOOOOOOOOXXXXX               ",
"               XXXXXOOOOOOOOOOOOOOOOOOOOOOOOOOOOOOOOOOOOOOOOOOOOOOOOOOOOOOOOOOOOOOOOOOOOOOXXXXX               ",
"                    XXXXXOOOOOOOOOOOOOOOOOOOOOOOOOOOOOOOOOOOOOOOOOOOOOOOOOOOOOOOOOOOOXXXXX                    ",
"                    XXXXXOOOOOOOOOOOOOOOOOOOOOOOOOOOOOOOOOOOOOOOOOOOOOOOOOOOOOOOOOOOOXXXXX                    ",
"                    XXXXXOOOOOOOOOOOOOOOOOOOOOOOOOOOOOOOOOOOOOOOOOOOOOOOOOOOOOOOOOOOOXXXXX                    ",
"                    XXXXXOOOOOOOOOOOOOOOOOOOOOOOOOOOOOOOOOOOOOOOOOOOOOOOOOOOOOOOOOOOOXXXXX                    ",
"                    XXXXXOOOOOOOOOOOOOOOOOOOOOOOOOOOOOOOOOOOOOOOOOOOOOOOOOOOOOOOOOOOOXXXXX                    ",
"                         XXXXXXXXXXOOOOOOOOOOOOOOOOOOOOOOOOOOOOOOOOOOOOOOOOXXXXXXXXXX                         ",
"                         XXXXXXXXXXOOOOOOOOOOOOOOOOOOOOOOOOOOOOOOOOOOOOOOOOXXXXXXXXXX                         ",
"                         XXXXXXXXXXOOOOOOOOOOOOOOOOOOOOOOOOOOOOOOOOOOOOOOOOXXXXXXXXXX                         ",
"                         XXXXXXXXXXOOOOOOOOOOOOOOOOOOOOOOOOOOOOOOOOOOOOOOOOXXXXXXXXXX                         ",
"                         XXXXXXXXXXOOOOOOOOOOOOOOOOOOOOOOOOOOOOOOOOOOOOOOOOXXXXXXXXXX                         ",
"                                   XXXXXXXXXXXXXXXXXXXXXXXXXXXXXXXXXXXXXXXX                                   ",
"                                   XXXXXXXXXXXXXXXXXXXXXXXXXXXXXXXXXXXXXXXX                                   ",
"                                   XXXXXXXXXXXXXXXXXXXXXXXXXXXXXXXXXXXXXXXX                                   ",
"                                   XXXXXXXXXXXXXXXXXXXXXXXXXXXXXXXXXXXXXXXX                                   ",
"                                   XXXXXXXXXXXXXXXXXXXXXXXXXXXXXXXXXXXXXXXX                                   "
};
