/* XPM */
static char *_7976034f70b4aff89723f5231842f377TgNeej4u2OIYw1F[] = {
/* columns rows colors chars-per-pixel */
"40 40 108 2 ",
"   c #030305",
".  c #0A0505",
"X  c #020905",
"o  c #0C0906",
"O  c #060709",
"+  c #0A060A",
"@  c #05090A",
"#  c #090A0C",
"$  c #160702",
"%  c #170906",
"&  c #130709",
"*  c #1F040D",
"=  c #140B0C",
"-  c #1B090D",
";  c #131009",
":  c #0E0E11",
">  c #0F1012",
",  c #141415",
"<  c #1E1513",
"1  c #17181A",
"2  c #1A1A1C",
"3  c #250C0F",
"4  c #360D0D",
"5  c #3B0D0F",
"6  c #270913",
"7  c #2A0B11",
"8  c #340C13",
"9  c #3C0D17",
"0  c #281D1B",
"q  c #1D1E20",
"w  c #1F2120",
"e  c #222324",
"r  c #27282A",
"t  c #282828",
"y  c #2E2F31",
"u  c #333333",
"i  c #353638",
"p  c #3B3B3C",
"a  c #430C13",
"s  c #4C0C14",
"d  c #440E1B",
"f  c #4B0F1B",
"g  c #500911",
"h  c #441216",
"j  c #4E101D",
"k  c #434244",
"l  c #4C4C4D",
"z  c #555658",
"x  c #5B5B5D",
"c  c #5D6265",
"v  c #626364",
"b  c gray45",
"n  c #7C7D7D",
"m  c #848484",
"M  c #858688",
"N  c #8B8B8C",
"B  c #929292",
"V  c #969799",
"C  c gray65",
"Z  c #A2A2A2",
"A  c #A5ABA9",
"S  c #AAAAAA",
"D  c gray68",
"F  c #AAA8A9",
"G  c #AEAFB1",
"H  c #ADB1B0",
"J  c gray71",
"K  c #B3B7B8",
"L  c gray73",
"P  c gray75",
"I  c #BFC0C2",
"U  c gray76",
"Y  c #C2C4C3",
"T  c gray78",
"R  c #CBCBCB",
"E  c gray83",
"W  c #D9D5D6",
"Q  c #D8D8D8",
"!  c #DDD8DC",
"~  c #DADFE2",
"^  c #DEDEE0",
"/  c #E8DFE2",
"(  c #E7E3E2",
")  c #E6E7E9",
"_  c gray92",
"`  c #EBECEE",
"'  c #ECECEC",
"]  c #EDECEA",
"[  c #EDEEF0",
"{  c #EEEFF1",
"}  c #F3F5F2",
"|  c gray96",
" . c #F9F9F7",
".. c #F8F8F8",
"X. c #F9F9F9",
"o. c gray98",
"O. c #FBFBFB",
"+. c #FCFCFA",
"@. c #FDFDFB",
"#. c gray99",
"$. c #FDFDFD",
"%. c #FFFCFD",
"&. c #FFFFFD",
"*. c #FEFEFE",
"=. c #FFFEFF",
"-. c #FEFFFF",
";. c white",
":. c #FCFFFD",
/* pixels */
"O O O O O O O O O O O O O O O O O O O   O     # O O O O O O O O O O O O O O O O ",
"O O O O O O O O O O O O O O O O   # O O   O # O O O O O O O O O O O O O O O O O ",
"O O O O O O O O O O O O O O O O # O     #   O   O O O O O O O O O O O O O O O O ",
"O O O O O O O O O O O O O O O O   # O O O # O O O O O O O O O O O O O O O O O O ",
"O O O O O O O O O O O O O O O O #   # # O # O   O O O O O O O O O O O O O O O O ",
"O O O O O O O O O O O O O O O O # #         O O O O O O O O O O O O O O O O O O ",
"O O O O O O O O O O O O O O O O     u v l u #   O O O O O O O O O O O O O O O O ",
"O O O O O O O O O O O O O O O O # D *.*.R k p , O O O O O O O O O O O O O O O O ",
"O O O O O O O O O #   O O O #   L *.*.@.*.S   > O X     O O O O O O O O O O O O ",
"O O O O O O O O #   O O O #   x *...*.@.*.*.i   # O O O O O O O O O O O O O O O ",
"O O O O O O O O #   # O O O   T *.*.*.*.*.*.p   # O O O O O O O O O O O O O O O ",
"O O O O O O O O O # O   #   e ....*.*...*._ 1   # + O O O O O O O O O O O O O O ",
"O O O O O O O O O #   O #   l *...*.*.*.*.C   # # * O O O O O O O O O O O O O O ",
"O O O O O O O O #   O O #   b *.*.*.*...*.p   # = 8 O O X O O O O O O O O O O O ",
"O O O O O O O O #   # O #   M *.^ R *.*.U   O   % d     X O # O O O O O O O O O ",
"O O O O O O O O O O O # #   N *.u O b | z   : O $ j     X O # O O O O O O O O O ",
"O O O O O O O O O O O O #   M Z   #   G y   # # 4 h   + O @ o X O O O O O O O O ",
"O O O O O O O O # O   O :   b m   #   M q   O O a 5   O O @ . @ O O O O O O O O ",
"O O O O O O O O O O #   #   l v     : N r O   O s 4   O O @ . @ O O O O O O O O ",
"O O O O O O O O O O O # #   b Q p e V v 2 2   # 8 a X O   @ . O O O O O O O O O ",
"O O O O O O O O # O   # O   P *.*.*.[ e : ,   # o f O # . @   @ O O O O O O O O ",
"O O O O O O O O O # O   :   N *.*.*.V # q q       9 O   . @ O @ O O O O O O O O ",
"O O O O O O O O O   # O O   e Z E ..I z i 2   # . - @ . O @ X @ O O O O O O O O ",
"O O O O O O O O O #   O O O   t p *.*.[ 2   O # 6 X @ . @ + X + O O O O O O O O ",
"O O O O O O O O O #   O   #   z n /  .( 1   . = 7   X O O @ O   O O O O O O O O ",
"O O O O O O O O O O O O O #   p K W } Q 1 e < 3 7   X O O O O   O O O O O O O O ",
"O O O O O O O O O O O O O O   q A v Y K x x 0 a -   X # O O O # O O O O O O O O ",
"O O O O O O O O O O O O O O   # H n v c k i < g &   X # O O O # O O O O O O O O ",
"O O O O O O O O O O O O O O #   J *.! ~ l w ; s #   O O O O O # O O O O O O O O ",
"O O O O O O O O O O O O O O #   B *.*.` :     h O O O O O O X # O O O O O O O O ",
"O O O O O O O O O O O O O O #   x *.*.' ,   = 3 X O O O O O X O O O O O O O O O ",
"O O O O O O O O O O O O O O #     S *.] 2   - & X + O O O O X O O O O O O O O O ",
"O O O O O O O O O O O O O O O O O   V ) 1 O O   O O O O O O O O O O O O O O O O ",
"O O O O O O O O O O O O O O O O O O   q :   O # O O O O O O O O O O O O O O O O ",
"O O O O O O O O O O O O O O O O # O O     O # O O O O O O O O O O O O O O O O O ",
"O O O O O O O O O O O O O O O O O   O O   # O O O O O O O O O O O O O O O O O O ",
"O O O O O O O O O O O O O O O O #   O # #   #   O O O O O O O O O O O O O O O O ",
"O O O O O O O O O O O O O O O O O O O   # #   # O O O O O O O O O O O O O O O O ",
"O O O O O O O O O O O O O O O O   # O #   O     O O O O O O O O O O O O O O O O ",
"O O O O O O O O O O O O O O O O O   O   O O # O O O O O O O O O O O O O O O O O "
};
