/* XPM */
static char *_acc9dd4c050424dcc75ce1551b0b848MNxl1YCgiYavmKJw[] = {
/* columns rows colors chars-per-pixel */
"40 40 188 2 ",
"   c #695F56",
".  c #6F6355",
"X  c #66635C",
"o  c #6E665D",
"O  c #6C685C",
"+  c #726457",
"@  c #71675E",
"#  c #71695E",
"$  c #7A6E5F",
"%  c #6B6664",
"&  c #6D6A66",
"*  c #6D6D6B",
"=  c #726760",
"-  c #746B64",
";  c #7B6D64",
":  c #716768",
">  c #736E6A",
",  c #7A6F6B",
"<  c #777066",
"1  c #7B7166",
"2  c #73716D",
"3  c #7C746B",
"4  c #7D786E",
"5  c #6D6E73",
"6  c #746F71",
"7  c #786F71",
"8  c #6F7272",
"9  c #757272",
"0  c #7C7573",
"q  c #7E7976",
"w  c #7A7478",
"e  c #767A7E",
"r  c #7C7B7D",
"t  c #816F63",
"y  c #82766B",
"u  c #81786D",
"i  c #8A7B6D",
"p  c #837672",
"a  c #887770",
"s  c #847B73",
"d  c #8A7E73",
"f  c #837B7B",
"g  c #8A7E7B",
"h  c #868274",
"j  c #8C8175",
"k  c #82827D",
"l  c #8C817A",
"z  c #89897F",
"x  c #91867E",
"c  c #948A7C",
"v  c #767680",
"b  c #757B83",
"n  c #7B7D84",
"m  c #7B7D8A",
"M  c #7D8186",
"N  c #7D828B",
"B  c #7F8693",
"V  c #858484",
"C  c #8A8685",
"Z  c #8B8A86",
"A  c #84858B",
"S  c #8A878A",
"D  c #868A8D",
"F  c #8C8B8C",
"G  c #948B84",
"H  c #998E83",
"J  c #928E8D",
"K  c #998E89",
"L  c #8E918C",
"P  c #949187",
"I  c #9C9182",
"U  c #94928D",
"Y  c #9C938D",
"T  c #828591",
"R  c #888694",
"E  c #868A92",
"W  c #8D8D92",
"Q  c #858C9C",
"!  c #8B8F9A",
"~  c #918E92",
"^  c #918F9B",
"/  c #879095",
"(  c #8D9195",
")  c #8D939B",
"_  c #939294",
"`  c #9B9593",
"'  c #9D9995",
"]  c #97959A",
"[  c #95969B",
"{  c #96979B",
"}  c #949599",
"|  c #91979D",
" . c #93969D",
".. c #91959E",
"X. c #94979C",
"o. c #96979C",
"O. c #97979F",
"+. c #94949E",
"@. c #93949A",
"#. c #989699",
"$. c #9B9798",
"%. c #99979A",
"&. c #99969A",
"*. c #97989A",
"=. c #97989D",
"-. c #95989F",
";. c #96999E",
":. c #94999D",
">. c #98999B",
",. c #9C9899",
"<. c #9E9A9B",
"1. c #9E9898",
"2. c #9E9D9B",
"3. c #99999D",
"4. c #9A999F",
"5. c #9D9B9E",
"6. c #9B9A9C",
"7. c #A39486",
"8. c #A3958C",
"9. c #A5998E",
"0. c #AA9A8D",
"q. c #A29693",
"w. c #A39B94",
"e. c #AA9E94",
"r. c #A09A9A",
"t. c #A09C9B",
"y. c #A09F9B",
"u. c #A69E9B",
"i. c #A09E9F",
"p. c #A39F9E",
"a. c #A49C9B",
"s. c #A99E9C",
"d. c #A4A09F",
"f. c #A5A19D",
"g. c #ABA39B",
"h. c #B1A79D",
"j. c #B5A99D",
"k. c #8D93A2",
"l. c #8F9AA0",
"z. c #8E96A9",
"x. c #9294A1",
"c. c #9496A3",
"v. c #9396A3",
"b. c #9299A1",
"n. c #9498A1",
"m. c #9699A0",
"M. c #959AA0",
"N. c #9599A2",
"B. c #939AA4",
"V. c #959AA3",
"C. c #999CA1",
"Z. c #9D9CA1",
"A. c #9F9DA0",
"S. c #9D9EA0",
"D. c #9E9DA3",
"F. c #9C9AA5",
"G. c #9B9EA5",
"H. c #999DA6",
"J. c #9B9BA2",
"K. c #9097A9",
"L. c #959AA8",
"P. c #999DA8",
"I. c #9B9FAA",
"U. c #A39DA2",
"Y. c #A19FAA",
"T. c #9EA1A5",
"R. c #97A1AD",
"E. c #99A1A8",
"W. c #98A1AA",
"Q. c #99A2AB",
"!. c #9AA2AD",
"~. c #9CA3AD",
"^. c #9BA3B1",
"/. c #9EA7B8",
"(. c #A0A0A2",
"). c #A7A3A0",
"_. c #A4A2A3",
"`. c #ACA3A2",
"'. c #AAA9A5",
"]. c #A4A5AA",
"[. c #A3A2AA",
"{. c #ABA7AC",
"}. c #B3A6A2",
"|. c #B0A8A6",
" X c #B9ACA3",
".X c #B2ACAE",
"XX c #BAAEAC",
"oX c #A1A4B3",
/* pixels */
"R.f g (.H.[ _ W _ @.@.[ _ M.@.- X.H.@._ W ) ) @.[ _ B.H.> U M.;._ _ F.c.v.) ! I.",
"!.f f A.M._ W W ~ W A W ^ M.W - A.A.^ ^ ^ _ W S W F ) b.> U M.[ _ @.[ _ ..M.( ) ",
"Q.w s i.X._ } @.F ( A F W ..F - <.<.~ ` ` _ _ F F F ) ..- ` ;.( V F [ _ ( _ ( _ ",
"~.q g d._ F _ _ S @.W F _ ) F ; <.#.F J F S S F F J @.@.- Y ;.W Z F } } _ W _ 3.",
"Q.w d i.W V J _ V ( _ S $.) F - 5._ V F W S S W S J @.) = Y 3.W _ F S F _ _ _ W ",
"b.0 s t.W S U } C _ ( F $...F @ 3._ W ^ [ W _ [ F J @._ = Y [ F ^ W F F F W ^ F ",
"Q.q s <.@.F F W J [ W ~ _ ) V # $.$._ F W S F _ W J @.@.= Y [ F W _ _ _ F S _ _ ",
"Q.q p $.;.} J F J @.F #.W ( V 1 <.#.J V F F _ F F J ( ( - Y ;.F [ F S _ F V F F ",
"A.f f u._ W F ` J Z z V S $.J - ` _ F k X.W Z J J F ( _ > ` r.W J S M V <.W E _ ",
"].r q ).*.( W W S W _ _ X.F.W * t.3.F D E A Z _ } ( ( A.& ` 2.;.#.@.@.J ` C.M.} ",
"g.d j j.e.w.u.q.a.w.u.a.s.`.q.y j.`.w.g.u.w.e.w.w.w.u.g.1 e.h.w.9.` q.0.7.q.' 9.",
"s - ; l u p s 0 d y d 4 u d u . d s p 3 g s i a p s l p o u l 3 d 3 p i i p 0 d ",
"n n n N n M N B * 8 A M b e n e e b N e T e & V N b n n N v n b n N A % f N N n ",
"..v.) ..C.M.B./.r A I.L.v.) B.c.( ) ) V.oXX.* U.L.v.) ..H.) ) ) ..!.!.* $.I.H...",
"` _ W F ` J _ M.p f 5._ _ _ [ ^ ` W A S O.F o a.[ #.J ` _ ( _ F _ _ 6.% Y [ _ J ",
"F W W D Z J @.) 3 f 5.W D L } W ( ) ) D c.A 2 U.:.F J } ( E @.F D / ;.& ` ;.@.F ",
"S _ J F S F _ M.9 h U._ V S _ } F W E F ..A - _.[ W S W ~ ~ ~ F ~ } C.= Y U.F C ",
"F ~ } _ F _ 3.X., h 5._ F W ~ F F _ @.J [ D ; 5._ F F F J ~ J F ~ _ X.= Y C.S S ",
"F V F F S W @.@.9 h J.W L W F V F F _ J } S ; t._ S F S Z F F F ^ ( _ - Y X.S ~ ",
"J V J F S _ _ ;.7 h J.W F W F F F V W Y _ V ; ).W F _ S S F S F ~ ( ..- Y X.D } ",
"J _ $.S F [ _ ;.7 h J.W F W W } _ F ( U _ N ; _.W W [ _ W } F S W ( X.> Y X.D _ ",
"S S F F _ F S 3.0 h U.F F W S F _ ( ) J ( A ; (.} W _ W F ~ F S F ( X.= Y C.F _ ",
"W V C #.6.S F (.s h _._ U _ Z V J _ @.J [ E ; (.<._ ~ F C F J J J _ O.= 8._._ #.",
"$.#.#.<.6.} 5.T.f j {.<.U $.` J ` #.;.` (.W t `.2.' ` ` J J U U #.6.J.- w.[.} ,.",
"` q.8.Y Y ' a.s.u d  X8.Y q.Y 7.8.G q.q.s.K p }.q.9.Y q.7.8.G Y ' Y Y - q.g.Y ` ",
"2 > # < > * * > * % 2 * * 9 > - > > 2 & > & X > 7 % 9 7 @ < w & - - <   1 < - > ",
"M.n r [ [ W E R E W W W ) V.W > A.3.) ) ( ! ) E R W ..c.> _ F.( k.k.k.v.) ! k.k.",
"^.m n Y.B.x.k.c.b.) E k.B.b.W w ~.F.) k.k.k.k.Q Q M.B.I.& [ F.V.M.) ) :.) ) ) b.",
"A.r k i.U W _ } W _ _ A E C._ > 5.6._ F ( @.@.@.E W ..c.* ` J._ Z Z U F F Z Z U ",
").q p g.' U ~ ` F F #.} 3.5.C - u.' J Z F F S $.$.L } U.# K U.` ^ ^ _ S ] } ~ O.",
".Xg l }.`.r.r.a.w.f.g.u.t.`.Y y XX`.a.r.u.w.q.`.`.w.u.|.1 9.`.g.(.d.2.' ).d.(.(.",
"h # $ i y 3 f 3 f d 3 d 3 s 1 + j d y 3 y d d y 0 4 s p . y g p 1 u y j d y s u ",
"r N b e n r n E > 5 R m m n A T n m m N N m * S T A m N m m m N N B A % w T m v ",
"X.B.k.k.) X.H.^.k k ].C.C.5.;.) _ C.:.:.~.W 9 '.V.T.T.;.M.( ( ) M.H.~.2 ` V.H.X.",
") ) ! v.E W ) ^.4 0 _.[ ( D D ) F ( ( ( ;.F 2 ' C.@.D D ( @.E N W k.C.% J M.) _ ",
"_ _ W 3._ _ _ T.f f _._ _ W W W ~ ~ _ _ 3.W 9 u.J._ W _ F } X._ W c.D.: ` [.X.} ",
"Y ` Y Y w.w.w.d.a x XXa.r.a.w.J ` q.' r.`.G , XXu.a.a.u.` ` r.U.w.i.`.= e.`.u.w.",
"G H H x G G J H y d w.Y G G H I G G x H H j 1 w.Y H G x Y H G G H P P $ I Y P c ",
"w & > 0 * * 9 > 9 & * 2 6 9 2 O 9 > * 2 * 2 > 2 * * 2 2 X > 9 2 & 8 5 & > 9 * > ",
"~.n V {.B.L.B.@.K.B.b.v.K.I.! * I.I.v.B.B.c.v.B.K.k.) I.5 _ [.c.) k.z.^ ..Q K.C."
};
