/* XPM */
static char *_877d143b5dd49698eae591e3495869fiXZgtOBVO8A9bPeC[] = {
/* columns rows colors chars-per-pixel */
"40 40 224 2 ",
"   c #010101",
".  c #0B0101",
"X  c #030902",
"o  c #0F0D04",
"O  c #02020B",
"+  c #09000A",
"@  c #0A0909",
"#  c #120100",
"$  c #1B0100",
"%  c #150B03",
"&  c #1C0B00",
"*  c #17050B",
"=  c #031009",
"-  c #17120B",
";  c #030010",
":  c #090316",
">  c #0F0810",
",  c #160514",
"<  c #230200",
"1  c #2A0100",
"2  c #2C0A00",
"3  c #260504",
"4  c #330200",
"5  c #3B0100",
"6  c #3D0E00",
"7  c #310A05",
"8  c #281908",
"9  c #3B1301",
"0  c #381608",
"q  c #311C19",
"w  c #3E2500",
"e  c #3D2800",
"r  c #362724",
"t  c #450302",
"y  c #450C00",
"u  c #4B0B00",
"i  c #540800",
"p  c #441403",
"a  c #4C1501",
"s  c #471E07",
"d  c #561C01",
"f  c #5A1A04",
"g  c #480B1D",
"h  c #660000",
"j  c #6C0300",
"k  c #6C1300",
"l  c #621A01",
"z  c #6D1A02",
"x  c #6D1F09",
"c  c #761A00",
"v  c #751405",
"b  c #4A2702",
"n  c #442700",
"m  c #5F2A00",
"M  c #562404",
"N  c #4F3300",
"B  c #553809",
"V  c #412C1B",
"C  c #542512",
"Z  c #572C1B",
"A  c #6A2903",
"S  c #7B2301",
"D  c #712D00",
"F  c #7C2A02",
"G  c #7E2B0E",
"H  c #742101",
"J  c #6E3800",
"K  c #753300",
"L  c #793905",
"P  c #672A13",
"I  c #652917",
"U  c #7B2B12",
"Y  c #762F1D",
"T  c #743219",
"R  c #783C1B",
"E  c #6B331A",
"W  c #5A2A20",
"Q  c #44302F",
"!  c #5E3521",
"~  c #572435",
"^  c #7F3E20",
"/  c #5A4300",
"(  c #6E4100",
")  c #67431F",
"_  c #71441B",
"`  c #664F25",
"'  c #7D4125",
"]  c #7D4431",
"[  c #62483B",
"{  c #79574B",
"}  c #801D00",
"|  c #812200",
" . c #852A00",
".. c #8A2C00",
"X. c #892F0D",
"o. c #962D03",
"O. c #833102",
"+. c #8E3300",
"@. c #8D3E03",
"#. c #923202",
"$. c #963903",
"%. c #983806",
"&. c #822B11",
"*. c #862911",
"=. c #853C15",
"-. c #893515",
";. c #963B1A",
":. c #A33B00",
">. c #8B3B22",
",. c #8E4600",
"<. c #834800",
"1. c #9E4402",
"2. c #95430C",
"3. c #9D4707",
"4. c #8E5B00",
"5. c #984818",
"6. c #864618",
"7. c #A34400",
"8. c #A64C03",
"9. c #A94605",
"0. c #B04600",
"q. c #A95401",
"w. c #B75B08",
"e. c #A04612",
"r. c #A75917",
"t. c #B65817",
"y. c #9D600D",
"u. c #A06600",
"i. c #BA6B04",
"p. c #BA770A",
"a. c #BB6E1C",
"s. c #A56C0E",
"d. c #84462A",
"f. c #90482F",
"g. c #945021",
"h. c #96553B",
"j. c #864E3A",
"k. c #A54E23",
"l. c #AA5729",
"z. c #B25921",
"x. c #A45335",
"c. c #9C663A",
"v. c #A2712F",
"b. c #A97333",
"n. c #C35D12",
"m. c #C45704",
"M. c #C96500",
"N. c #D16910",
"B. c #C87718",
"V. c #D57719",
"C. c #C57409",
"Z. c #CC692E",
"A. c #C87428",
"S. c #D67D2D",
"D. c #D37F27",
"F. c #CC7F31",
"G. c #D67734",
"H. c #E97D22",
"J. c #895A46",
"K. c #9C634F",
"L. c #A06346",
"P. c #B77F46",
"I. c #BA920F",
"U. c #BC8F10",
"Y. c #C38204",
"T. c #CB8E19",
"R. c #D2861D",
"E. c #D29509",
"W. c #EC8C15",
"Q. c #DDA011",
"!. c #D5A505",
"~. c #E8B01D",
"^. c #C38522",
"/. c #DB8124",
"(. c #D08E2D",
"). c #DF8E33",
"_. c #DB9438",
"`. c #ED8C2E",
"'. c #F19B2D",
"]. c #E08131",
"[. c #E69736",
"{. c #F79B39",
"}. c #ECAE27",
"|. c #FFA129",
" X c #EDA53B",
".X c #E6A733",
"XX c #F8AB38",
"oX c #ECBB30",
"OX c #FFBE35",
"+X c #FDC62B",
"@X c #F6C629",
"#X c #FFCA3D",
"$X c #FFD835",
"%X c #EBC325",
"&X c #FFF32A",
"*X c #FFE339",
"=X c #FFF23E",
"-X c #BE8744",
";X c #DD9644",
":X c #ED9B47",
">X c #FFAB46",
",X c #FFAF4A",
"<X c #F4A34B",
"1X c #FFBE4C",
"2X c #FFB342",
"3X c #FFBA51",
"4X c #FFB154",
"5X c #FCC747",
"6X c #FFD443",
"7X c #FED74C",
"8X c #FFC65A",
"9X c #FFCC59",
"0X c #FFC351",
"qX c #FFEB4A",
"wX c #FFEE40",
"eX c #FFF243",
"rX c #FFED52",
"tX c #FFF252",
"yX c #FFFF50",
"uX c #FFCC63",
"iX c #FFD466",
"pX c #E6C96B",
"aX c #FFF460",
"sX c #FFDE86",
/* pixels */
"                                                                                ",
"                                                                                ",
"                                                                                ",
"                                                                                ",
"                                                                                ",
"                                                                                ",
"                                                                                ",
"                                                                                ",
"                                                      X                         ",
"                                                              X                 ",
"                                                                                ",
"                                                                                ",
"                                                                                ",
"                                . . .           .             .                 ",
"                                @ o . . .   .   .   # - *   . .                 ",
"                                % % .       . . $ & q Q r %                     ",
"+                 . . .     X   8 # o @   X . # s ! W 7 8 . X                   ",
"+                 . . .         8 8 -       . 2 C E I 1 $                       ",
".                               B n %   =   # Z R P W $ . +   O                 ",
"                              # _ p .   X   $ ] f.l C $ . , ; O                 ",
"                X           # 2 ^ u 3 %   . p h.x.f M < . .                     ",
"            O   O X       . 3 p >.i 4 $ # 0 P =.l.i M n %   . o                 ",
"            O O O X       # 9 P ;.k y 4 9 s A 2.l.t a ` V . . .                 ",
"          + O O X       . $ p T k.e.5.6.R d D ;Xr.5 t j.{ * %                   ",
"        + + + O O =     # < f =.3.D.<X:XA.,.T.0XD 4 u j.~ ,   X                 ",
"        +             . # 1 P =.,.i.uXuX/.V.6XoXm a l Y g *   X                 ",
"        .         % . # < p T g.L i.iX,XN.'.rX%X( J K L t 3                     ",
"            . . % & # $ < d d.D K R.>X0.o.V.+X*XI.s.p.r.f $ o                   ",
"            . # [ 0 < 4 1 ' h.5 <.[.].h j 8.E.qX6X5X#X.Xv.$ . X                 ",
"          . % $ { J.4 4 T L.P 5 y._.A.j h ..Y.$X@XtX=XqXsXB . X                 ",
"+ +         . $ C K.t i h.d.1 M ^. XA.c v S p.@X!.*X&XyXpX` &                   ",
"+ O         . $ 6 R F l.5.D u <..X9XB.z &.S i.OXQ.$X&XeX/ & 8                   ",
"            . # 9 P.a.B.8.k O.B.0X1Xq.+.#...S.{.C.#XwXtXe &                     ",
"X       + + . # b -X[.W.M.$.w.XX9X'.8.7.$.:.G.t.1.XX+XaXe %   O                 ",
"X       + . . # b b.4X2X|.W.{.8X3Xi.8.t.+.e.Z. ... X~.7XN .   O                 ",
"X       . . . # 9 L <X3X8X1X,X{./.+.8.z.| %.t.c +.).}.U.N # > O                 ",
"X X         . # < a F.{.>X>X`.w.q.S 2.5.S X.;.| ..S.XX4.9 $ > ;                 ",
"X             . < y r.V.V.H.V.w.1.F O.-.G -.X.| #.G. Xu.4 < + :                 ",
"              . < p @.w.0.m.n.t.3. .S G U U &.c X.t.R.^.m 2 + :                 ",
"              . $ 6 H 7.o.:.:.#.$.F H U x z &.k } | q.(.c.2 * +                 "
};
