/* XPM */
static char *c940de27b1334583ebc5bcb17ec84113BtJ6xKXnMftmrRnr[] = {
/* columns rows colors chars-per-pixel */
"40 40 256 2 ",
"   c black",
".  c #010101",
"X  c #020202",
"o  c gray1",
"O  c #040404",
"+  c gray2",
"@  c #060606",
"#  c #070707",
"$  c gray3",
"%  c #090909",
"&  c gray4",
"*  c #0B0B0B",
"=  c #0C0C0C",
"-  c gray5",
";  c #0E0E0E",
":  c gray6",
">  c #101010",
",  c #111111",
"<  c gray7",
"1  c #131313",
"2  c gray8",
"3  c #151515",
"4  c #161616",
"5  c gray9",
"6  c #181818",
"7  c #191919",
"8  c gray10",
"9  c #1B1B1B",
"0  c gray11",
"q  c #1D1D1D",
"w  c #1E1E1E",
"e  c gray12",
"r  c #202020",
"t  c gray13",
"y  c #222222",
"u  c #232323",
"i  c gray14",
"p  c #252525",
"a  c gray15",
"s  c #272727",
"d  c #282828",
"f  c gray16",
"g  c #2A2A2A",
"h  c gray17",
"j  c #2C2C2C",
"k  c #2D2D2D",
"l  c gray18",
"z  c #2F2F2F",
"x  c gray19",
"c  c #313131",
"v  c #323232",
"b  c gray20",
"n  c #343434",
"m  c #353535",
"M  c gray21",
"N  c #373737",
"B  c gray22",
"V  c #393939",
"C  c #3A3A3A",
"Z  c gray23",
"A  c #3C3C3C",
"S  c gray24",
"D  c #3E3E3E",
"F  c #3F3F3F",
"G  c gray25",
"H  c #414141",
"J  c gray26",
"K  c #434343",
"L  c #444444",
"P  c gray27",
"I  c #464646",
"U  c gray28",
"Y  c #484848",
"T  c #494949",
"R  c gray29",
"E  c #4B4B4B",
"W  c #4C4C4C",
"Q  c gray30",
"!  c #4E4E4E",
"~  c gray31",
"^  c #505050",
"/  c #515151",
"(  c gray32",
")  c #535353",
"_  c gray33",
"`  c #555555",
"'  c #565656",
"]  c gray34",
"[  c #585858",
"{  c gray35",
"}  c #5A5A5A",
"|  c #5B5B5B",
" . c gray36",
".. c #5D5D5D",
"X. c gray37",
"o. c #5F5F5F",
"O. c #606060",
"+. c gray38",
"@. c #626262",
"#. c gray39",
"$. c #646464",
"%. c #656565",
"&. c gray40",
"*. c #676767",
"=. c #686868",
"-. c DimGray",
";. c #6A6A6A",
":. c gray42",
">. c #6C6C6C",
",. c #6D6D6D",
"<. c gray43",
"1. c #6F6F6F",
"2. c gray44",
"3. c #717171",
"4. c #727272",
"5. c gray45",
"6. c #747474",
"7. c gray46",
"8. c #767676",
"9. c #777777",
"0. c gray47",
"q. c #797979",
"w. c gray48",
"e. c #7B7B7B",
"r. c #7C7C7C",
"t. c gray49",
"y. c #7E7E7E",
"u. c gray50",
"i. c #808080",
"p. c #818181",
"a. c gray51",
"s. c #838383",
"d. c #848484",
"f. c gray52",
"g. c #868686",
"h. c gray53",
"j. c #888888",
"k. c #898989",
"l. c gray54",
"z. c #8B8B8B",
"x. c gray55",
"c. c #8D8D8D",
"v. c #8E8E8E",
"b. c gray56",
"n. c #909090",
"m. c gray57",
"M. c #929292",
"N. c #939393",
"B. c gray58",
"V. c #959595",
"C. c gray59",
"Z. c #979797",
"A. c #989898",
"S. c gray60",
"D. c #9A9A9A",
"F. c #9B9B9B",
"G. c gray61",
"H. c #9D9D9D",
"J. c gray62",
"K. c #9F9F9F",
"L. c #A0A0A0",
"P. c gray63",
"I. c #A2A2A2",
"U. c gray64",
"Y. c #A4A4A4",
"T. c #A5A5A5",
"R. c gray65",
"E. c #A7A7A7",
"W. c gray66",
"Q. c #A9A9A9",
"!. c #AAAAAA",
"~. c gray67",
"^. c #ACACAC",
"/. c gray68",
"(. c #AEAEAE",
"). c #AFAFAF",
"_. c gray69",
"`. c #B1B1B1",
"'. c #B2B2B2",
"]. c gray70",
"[. c #B4B4B4",
"{. c gray71",
"}. c #B6B6B6",
"|. c #B7B7B7",
" X c gray72",
".X c #B9B9B9",
"XX c gray73",
"oX c #BBBBBB",
"OX c #BCBCBC",
"+X c gray74",
"@X c gray",
"#X c gray75",
"$X c #C0C0C0",
"%X c #C1C1C1",
"&X c gray76",
"*X c #C3C3C3",
"=X c gray77",
"-X c #C5C5C5",
";X c #C6C6C6",
":X c gray78",
">X c #C8C8C8",
",X c gray79",
"<X c #CACACA",
"1X c #CBCBCB",
"2X c gray80",
"3X c #CDCDCD",
"4X c #CECECE",
"5X c gray81",
"6X c #D0D0D0",
"7X c gray82",
"8X c #D2D2D2",
"9X c LightGray",
"0X c gray83",
"qX c #D5D5D5",
"wX c gray84",
"eX c #D7D7D7",
"rX c #D8D8D8",
"tX c gray85",
"yX c #DADADA",
"uX c gray86",
"iX c gainsboro",
"pX c #DDDDDD",
"aX c gray87",
"sX c #DFDFDF",
"dX c gray88",
"fX c #E1E1E1",
"gX c #E2E2E2",
"hX c gray89",
"jX c #E4E4E4",
"kX c gray90",
"lX c #E6E6E6",
"zX c #E7E7E7",
"xX c gray91",
"cX c #E9E9E9",
"vX c #EAEAEA",
"bX c gray92",
"nX c #ECECEC",
"mX c gray93",
"MX c #EEEEEE",
"NX c #EFEFEF",
"BX c gray94",
"VX c #F1F1F1",
"CX c gray95",
"ZX c #F3F3F3",
"AX c #F4F4F4",
"SX c gray96",
"DX c #F6F6F6",
"FX c gray97",
"GX c #F8F8F8",
"HX c #F9F9F9",
"JX c gray98",
"KX c #FBFBFB",
"LX c gray99",
"PX c #FDFDFD",
"IX c #FEFEFE",
"UX c white",
/* pixels */
"o $ & # % , 2 1 > = : * - 3 5 e 6 3 2 3 4 4 3 3 4 7 5 > = ; < 2 1 4 , = - * @ @ ",
"O $ % @ % > 1 > 3 , 3 > > 3 1 7 q 8 6 6 8 9 9 9 5 9 8 1 = = > < 1 1 = $ - ; $ # ",
"O # # # = 2 4 < 7 4 8 3 2 4 < 4 e 0 7 6 7 0 q 0 5 0 q 5 : - > 1 5 3 * @ - : % @ ",
"O + @ % , 7 9 6 6 3 9 5 4 8 4 9 e 0 7 5 7 9 8 5 1 7 q 7 , ; < 5 q 9 > % - - # + ",
"O O @ & < 8 0 8 6 3 7 3 3 9 8 r w w 9 7 9 0 6 , > 4 9 7 , - > 4 q q 3 - - * @ @ ",
"+ + # * , 4 6 6 8 3 6 1 1 7 6 e 0 0 8 6 8 0 4 = : 1 5 4 > & - 1 5 8 2 ; ; = # # ",
"+ @ % - , 2 4 6 7 3 6 < , 4 3 9 9 0 7 5 7 q 5 - > < 3 4 , = ; 2 3 6 1 : 1 > % @ ",
"O @ & : < 3 6 0 4 1 5 < , 4 1 7 e e 0 6 0 t q 2 > , 2 4 2 , 2 8 5 6 1 , 5 3 & O ",
"$ * ; , 1 3 3 1 1 , 1 5 3 , 2 0 6 8 8 8 9 w w 9 , 1 4 5 1 > 1 6 8 2 4 8 4 , = + ",
"@ % - > 1 3 3 2 2 < 1 5 3 < 3 0 4 4 3 3 5 8 6 2 5 6 8 8 4 < 2 7 q 5 8 q 7 1 ; @ ",
"@ $ - < 4 6 6 7 7 4 5 7 5 2 5 q 8 7 5 5 8 q 8 3 0 q w w 7 3 3 7 r 9 q r 9 3 : $ ",
"# & : 4 9 0 q e r q 0 0 8 5 7 w r w 9 9 r i r 8 e e r r 9 5 4 7 t q r y 0 3 > $ ",
"% & , 7 w e r y i y e q 9 7 9 w e q 9 0 t p y 0 e e t t w 8 7 9 y w y p w 5 < * ",
"% & > 8 e w e y i y w 9 8 9 q e w q 0 q t p y q r r t u t q 0 w y e i d t 8 3 : ",
"% % > 8 e q w t y r q 8 8 q r y r t r r y p i r e e r y t w q w r w i d t 9 5 , ",
"& & > 9 r q q t t e 0 8 0 t i a y u y t y i u r w q e t r q 9 0 q 0 y s r 8 4 , ",
"% = , 3 7 9 q q 9 w r r t i p p i a i u p t e i r y p a y w w t y i i t 9 4 1 < ",
"% = , 4 7 9 q w 9 q e w r u p i p s p p d u r i r y p a u w e y a p y w 8 3 > - ",
"& ; 1 5 8 0 w e q e e w e u a p a d s s g p r u r y i p y w e u d i e 0 7 2 ; % ",
"= > 4 8 0 w r y t t r w r p s s a d a s g p w t w e y u r 0 w y p u e 0 7 2 : * ",
"; 1 7 q w r u p u u r w r i a p i p u p d y 9 0 9 0 w e 0 8 q y u i u e 6 < ; - ",
": 2 9 w e t i s i y e 0 w y u r t y e r i w 4 5 5 6 8 9 8 7 q y i a a t 7 , = & ",
": 2 9 e e r i s p u e q w t r q r e 0 0 r 9 1 2 2 3 5 7 6 6 q u u i i t 9 1 = $ ",
"; 2 9 w e r u s s p t w e y r 0 e w 8 8 w 7 , < 1 2 4 6 6 6 w i t t r r w 5 ; # ",
"; 2 8 q w e u s s u q 7 q y r 7 w 4 1 6 8 3 , , : 1 3 3 1 3 8 e e r t r 0 4 > = ",
"> 3 9 0 9 0 e u s u q 8 w u t 0 q 5 4 9 0 4 1 2 , 2 4 4 2 2 6 0 0 0 q q 9 4 : & ",
", 4 9 9 5 5 8 e u e 8 6 0 t t w 0 7 9 w q 6 3 4 2 5 7 6 3 2 5 7 8 7 7 8 8 4 : % ",
"> 3 7 6 2 1 5 9 q 7 3 2 6 q w w 0 0 e t w 6 3 4 4 7 9 8 5 4 5 7 0 8 7 8 9 6 > $ ",
"- , 2 3 1 < 3 6 6 3 < 1 4 8 q e q e t t q 6 3 4 4 6 7 7 5 4 5 6 0 8 7 8 9 5 ; # ",
"& - > < 1 2 3 3 3 1 1 3 5 7 q t w r y t q 7 4 4 3 4 4 4 3 2 3 4 8 7 6 7 6 2 = @ ",
"% & - , 3 4 2 < 2 < 2 5 7 7 q y w r t e q 0 8 6 5 5 4 3 2 2 3 3 4 5 5 6 5 < = # ",
"$ % * > 4 5 2 > < , 2 6 7 7 0 t e r r e w w q 9 9 8 6 4 3 3 3 4 2 4 6 6 4 < - % ",
"% & = ; > , , < 4 3 2 3 5 7 8 8 4 5 8 9 0 0 q q 4 1 < 2 3 3 3 5 , , , < , - % + ",
"$ % * ; : > , , 2 1 , , < < < , 3 6 9 q w 0 9 8 2 < < 1 1 < 1 3 > > > > : = $ @ ",
"$ % * = ; : : : 1 , > : > > : : 2 5 9 w w 0 6 4 > > > , : - : 1 : ; - - = * $ @ ",
"# $ % * = - - - ; ; - ; > , , , < 2 5 8 9 8 4 2 - - : : = % * : - * & & % % # @ ",
"@ # $ & & * * & & & & = : > > > : : > < 3 4 2 1 & * - - & @ $ = & % $ # $ $ # @ ",
"+ @ # $ % % $ $ = = = - : > : : - * & = : , , , & & * = % @ @ $ $ # @ @ # # @ + ",
"O + @ # $ # # @ - = - ; > > : ; * % # $ = ; ; = * % % * % @ + @ @ + + @ # # @ + ",
"O + @ # # # @ + $ $ % * - ; - = & $ # $ * = * % = % $ & & # O O + O + @ $ $ @ + "
};
